<svg xmlns="http://www.w3.org/2000/svg" xmlns:xlink="http://www.w3.org/1999/xlink" width="67.453" height="65.494" viewBox="0 0 67.453 65.494">
  <defs>
    <filter id="caret-forward-circle" x="1.959" y="0" width="65.494" height="65.494" filterUnits="userSpaceOnUse">
      <feOffset dx="1" dy="2" input="SourceAlpha"/>
      <feGaussianBlur stdDeviation="2.5" result="blur"/>
      <feFlood flood-color="#5bc2b9" flood-opacity="0.302"/>
      <feComposite operator="in" in2="blur"/>
      <feComposite in="SourceGraphic"/>
    </filter>
  </defs>
  <g id="Group_381" data-name="Group 381" transform="translate(-1053.091 -208.5)">
    <path id="caret-forward-circle-2" data-name="caret-forward-circle" d="M98.494,73.247A25.247,25.247,0,1,0,73.247,98.494,25.248,25.248,0,0,0,98.494,73.247Zm-30.587,9c0-18.751.436-19.436,1.118-19.755S82.6,72.67,82.6,73.247s-.257,1.124-11.514,10.491a1.942,1.942,0,0,1-3.184-1.492Z" transform="translate(1005.091 161)" fill="#dfdfdf"/>
    <g id="Group_380" data-name="Group 380" transform="translate(0.043 -0.049)">
      <g transform="matrix(1, 0, 0, 1, 1053.05, 208.55)" filter="url(#caret-forward-circle)">
        <path id="caret-forward-circle-3" data-name="caret-forward-circle" d="M98.494,73.247A25.247,25.247,0,1,0,73.247,98.494,25.248,25.248,0,0,0,98.494,73.247Zm-30.587,9v-18a1.942,1.942,0,0,1,3.184-1.492l10.814,9a1.942,1.942,0,0,1,0,2.986l-10.814,9a1.942,1.942,0,0,1-3.184-1.492Z" transform="translate(-39.54 -42.5)" fill="#5bc2b9"/>
      </g>
    </g>
    <ellipse id="Ellipse_177" data-name="Ellipse 177" cx="13.5" cy="16.5" rx="13.5" ry="16.5" transform="translate(1074.55 223)" fill="#5bc2b9"/>
    <path id="Path_391" data-name="Path 391" d="M-522.1-42.2l4.786-3.5c.419-.341.737-.264.737.365v10.666c0,.706-.4.628-.737.365l-4.786-3.5Zm-16.2-3.1v7.943a3.257,3.257,0,0,0,3.273,3.242h11.6a.6.6,0,0,0,.6-.59v-7.951a3.258,3.258,0,0,0-3.273-3.242h-11.6A.608.608,0,0,0-538.3-45.3Z" transform="translate(1614.85 279.9)" fill="#dcdedd"/>
  </g>
</svg>
