<svg xmlns="http://www.w3.org/2000/svg" width="43.674" height="53.5" viewBox="0 0 43.674 53.5">
  <g id="Group_7" data-name="Group 7" transform="translate(-448 -181)">
    <g id="Group_2" data-name="Group 2" transform="translate(484.031 181)">
      <rect id="Rectangle_1704" data-name="Rectangle 1704" width="7.643" height="43.673" rx="3.821" transform="translate(0 1.092)" fill="#e8e8e8"/>
      <path id="Rectangle_1705" data-name="Rectangle 1705" d="M3.821,0h0A3.821,3.821,0,0,1,7.643,3.821V32.755a0,0,0,0,1,0,0H0a0,0,0,0,1,0,0V3.821A3.821,3.821,0,0,1,3.821,0Z" transform="translate(0)" fill="#5bc2b9"/>
    </g>
    <g id="Group_4" data-name="Group 4" transform="translate(472.02 211.571)">
      <g id="Group_3" data-name="Group 3" transform="translate(0 0)">
        <rect id="Rectangle_1704-2" data-name="Rectangle 1704" width="7.643" height="21.837" rx="3.821" transform="translate(0 1.092)" fill="#e8e8e8"/>
        <path id="Rectangle_1705-2" data-name="Rectangle 1705" d="M3.821,0h0A3.821,3.821,0,0,1,7.643,3.821V16.378a0,0,0,0,1,0,0H0a0,0,0,0,1,0,0V3.821A3.821,3.821,0,0,1,3.821,0Z" fill="#5bc2b9"/>
      </g>
    </g>
    <g id="Group_5" data-name="Group 5" transform="translate(460.01 193.01)">
      <g id="Group_3-2" data-name="Group 3" transform="translate(0 0)">
        <rect id="Rectangle_1704-3" data-name="Rectangle 1704" width="7.643" height="29.48" rx="3.821" transform="translate(0 1.092)" fill="#e8e8e8"/>
        <path id="Rectangle_1705-3" data-name="Rectangle 1705" d="M3.821,0h0A3.821,3.821,0,0,1,7.643,3.821V22.929a0,0,0,0,1,0,0H0a0,0,0,0,1,0,0V3.821A3.821,3.821,0,0,1,3.821,0Z" fill="#5bc2b9"/>
      </g>
    </g>
    <g id="Group_6" data-name="Group 6" transform="translate(448 202.837)">
      <g id="Group_3-3" data-name="Group 3" transform="translate(0 0)">
        <rect id="Rectangle_1704-4" data-name="Rectangle 1704" width="7.643" height="24.02" rx="3.821" transform="translate(0 1.092)" fill="#e8e8e8"/>
        <path id="Rectangle_1705-4" data-name="Rectangle 1705" d="M3.821,0h0A3.821,3.821,0,0,1,7.643,3.821v14.74a0,0,0,0,1,0,0H0a0,0,0,0,1,0,0V3.821A3.821,3.821,0,0,1,3.821,0Z" fill="#5bc2b9"/>
      </g>
    </g>
  </g>
</svg>
